# xmcd CD database file
#
# Track frame offsets:
#	150
#	13252
#	24859
#	40176
#	56761
#	74067
#	88128
#	102391
#	121182
#	134074
#	147452
#	160338
#	176294
#	189719
#	203273
#	220113
#	234144
#	246735
#	260078
#	272667
#	283460
#	298169
#	311721
#	323096
#
# Disc length: 4439 seconds
#
# Revision: 0
# Processed by: cddbd v1.5.1PL0 Copyright (c) Steve Scherf et al.
# Submitted via: CDex 1.51
#
DISCID=7d115518
DTITLE=Lars Gullin - 1951-53: Silhouette
DYEAR=2005
DGENRE=Jazz
TTITLE0=Alone
TTITLE1=The Continental
TTITLE2=Stella By Starlight
TTITLE3=For Goofers Only I
TTITLE4=For Goofers Only II
TTITLE5=All The Things You Are
TTITLE6=You Go To My Head
TTITLE7=You Go To My Head
TTITLE8=Smooth Breeze
TTITLE9=Smart Alec
TTITLE10=Apostrophe
TTITLE11=Merlin
TTITLE12=Colon
TTITLE13=Comma
TTITLE14=Silhouette
TTITLE15=Disc-Major
TTITLE16=Holiday For Piano
TTITLE17=She's Funny That Way
TTITLE18=Night And Day
TTITLE19=Sounds Like That
TTITLE20=Brazil
TTITLE21=Four And No More
TTITLE22=Sad Sally
TTITLE23=You Blew Out The Flame
EXTD=YEAR: 2005
EXTT0=
EXTT1=
EXTT2=
EXTT3=
EXTT4=
EXTT5=
EXTT6=
EXTT7=
EXTT8=
EXTT9=
EXTT10=
EXTT11=
EXTT12=
EXTT13=
EXTT14=
EXTT15=
EXTT16=
EXTT17=
EXTT18=
EXTT19=
EXTT20=
EXTT21=
EXTT22=
EXTT23=
PLAYORDER=
